# xmcd
#
# Track frame offsets: 
#        150
#        12005
#        25215
#        36070
#        50112
#        62805
#        77427
#        89242
#        99490
#        109390
#
# Disc length: 1591 seconds
#
# Revision: 3
# Processed by: cddbd v1.5.2PL0 Copyright (c) Steve Scherf et al.
# Submitted via: ExactAudioCopy v0.95b4
#
DISCID=7e06350a
DTITLE="Tennessee" Ernie Ford - "Tennessee" Ernie Ford: Greatest Hits
DYEAR=1995
DGENRE=Country
TTITLE0=Sixteen Tons
TTITLE1=The Ballad Of Davy Crockett
TTITLE2=In The Middle Of An Island
TTITLE3=Mule Train
TTITLE4=That's All
TTITLE5=The Cry Of The Wild Goose
TTITLE6=Shot-Gun Boogie
TTITLE7=Ivy League
TTITLE8=First Born
TTITLE9=The Rovin' Gambler
EXTD=
EXTT0=
EXTT1=
EXTT2=
EXTT3=
EXTT4=
EXTT5=
EXTT6=
EXTT7=
EXTT8=
EXTT9=
PLAYORDER=
